<svg
      xmlns="http://www.w3.org/2000/svg"
      width="512"
      height="512"
      className="hovered-paths"
      enableBackground="new 0 0 512 512"
      viewBox="0 0 512 512"
    >
      <path
        fill="#0b8400"
        d="M247.999 347.378c3.093 2.061 5.798 4.958 8.112 8.691s3.733 7.339 4.252 10.819c.469 4.023-.171 7.599-1.913 10.726-1.745 3.128-4.235 5.903-7.472 8.322-2.12 1.53-3.785 3.243-4.994 5.146-1.213 1.901-1.257 4.198-.138 6.891a34.683 34.683 0 002.199 3.685 22.868 22.868 0 012.599 4.738c1.234 4.216.298 7.91-2.81 11.082-3.443 2.858-7.372 3.618-11.78 2.284a20.594 20.594 0 01-6.459-4.189 81.08 81.08 0 01-11.207-12.21 190.832 190.832 0 01-9.279-13.648l-.677-.99c-1.815-2.724-3.52-5.715-5.109-8.973-1.588-3.256-2.228-6.445-1.913-9.569.694-3.802 2.343-7.068 4.95-9.794a69.785 69.785 0 018.639-7.633l1.709-1.294c4.51-3.708 9.475-6.147 14.896-7.314 5.419-1.167 10.882-.092 16.395 3.23zm-10.582 26.377c.148-.648.006-1.459-.425-2.428a11.566 11.566 0 00-1.686-2.707c-.696-.832-1.38-1.376-2.059-1.628-1.609-.504-2.999-.317-4.169.565-1.167.882-1.765 2.111-1.784 3.685.013.454.217 1.063.613 1.826.394.763.85 1.507 1.363 2.23.515.723.959 1.234 1.328 1.528a3.725 3.725 0 001.82.909c1.134.115 2.172-.279 3.118-1.176.945-.901 1.57-1.835 1.881-2.804zm56.852-25.222a638.926 638.926 0 017.082 16.91c.421 1.071.84 2.141 1.263 3.21a30.58 30.58 0 012.224 7.968c.371 2.72.015 5.336-1.069 7.845-1.069 2.278-2.624 3.891-4.658 4.84-2.036.948-4.273 1.19-6.709.719-3.483-.702-6.186-2.168-8.108-4.394s-3.921-5.319-5.994-9.277l-.384-.632a238.813 238.813 0 01-11.295-22.889c-.4-.927-.794-1.801-1.182-2.618-2.253-4.906-3.764-8.994-4.523-12.27-.759-3.272-.388-6.688 1.115-10.253 1.77-3.562 4.565-5.65 8.393-6.27 3.368-.536 6.209.035 8.523 1.715 2.307 1.68 4.575 4.487 6.793 8.423a188.324 188.324 0 018.529 16.973zm9.142-38.196a95.36 95.36 0 017.503-1.628l4.25-.873c4.187-.894 8.352-1.82 12.489-2.776 3.452-.69 6.695-.223 9.731 1.396 3.037 1.624 5.434 4 7.193 7.13 1.69 3.291 2.545 6.801 2.568 10.53a30.07 30.07 0 01-1.924 10.817 53.857 53.857 0 01-8.368 14.369 5.365 5.365 0 00-.994 1.73c-.225.875-.044 1.547.546 2.018.592.471 1.292.686 2.103.64a7.751 7.751 0 002.141-.494c.855-.304 1.745-.634 2.666-.99a36.095 36.095 0 015.517-1.865c1.893-.471 3.729-.413 5.511.175 2.053.848 3.602 2.295 4.644 4.342a15.36 15.36 0 011.524 6.351c.102 1.69-.096 3.272-.594 4.746s-1.432 2.743-2.793 3.806a20.945 20.945 0 01-5.901 2.999 66.255 66.255 0 01-6.409 1.722c-.171.04-.323.073-.459.104a585.592 585.592 0 01-13.218 2.893l-1.626.375-2.545.588a35.995 35.995 0 01-5.711 1.157 13.443 13.443 0 01-5.728-.552c-1.995-.752-3.666-1.984-5.009-3.695a13.854 13.854 0 01-2.689-5.73c-.536-2.626-.486-5.15.154-7.566a48.668 48.668 0 012.503-7.145c.188-.438.367-.89.546-1.359.796-1.972 1.624-3.95 2.487-5.936a250.855 250.855 0 004.008-10.038c.179-.471.369-.961.573-1.471.782-1.717 1.246-3.416 1.396-5.094-.054-1.309-.488-2.226-1.307-2.753-.817-.525-1.817-.636-2.997-.327-.771.215-1.509.511-2.209.886-.315.179-.634.344-.957.49-2.862 1.232-5.792 1.455-8.8.663-3.006-.786-5.332-2.58-6.978-5.382-1.569-3.245-1.665-6.172-.286-8.779 1.384-2.605 3.695-4.392 6.939-5.352.17-.045.341-.083.51-.122zm69.333-11.593c2.541-.042 5.1.019 7.674.186 1.461.048 2.905.098 4.337.148 4.277.113 8.543.192 12.789.236 3.516.14 6.561 1.357 9.131 3.645 2.572 2.291 4.344 5.163 5.317 8.621.869 3.595.875 7.207.019 10.838a30.02 30.02 0 01-4.41 10.063 53.831 53.831 0 01-11.511 11.997 5.431 5.431 0 00-1.371 1.451c-.427.796-.406 1.492.058 2.088.463.596 1.094.969 1.893 1.117.729.11 1.463.119 2.193.023.909-.096 1.849-.208 2.824-.338 1.92-.329 3.854-.5 5.805-.515s3.723.473 5.313 1.465c1.799 1.307 2.962 3.076 3.495 5.311a15.273 15.273 0 01-.013 6.528c-.298 1.667-.861 3.162-1.69 4.475-.834 1.315-2.036 2.33-3.61 3.045a20.99 20.99 0 01-6.44 1.526c-2.23.169-4.442.225-6.636.169l-.467-.006a571.24 571.24 0 01-13.527-.296l-1.672-.015c-.869-.01-1.74-.019-2.612-.027a36.129 36.129 0 01-5.821-.217 13.472 13.472 0 01-5.438-1.884c-1.763-1.201-3.097-2.791-4-4.769a13.84 13.84 0 01-1.267-6.203c.096-2.68.738-5.119 1.926-7.318a49.093 49.093 0 014.114-6.355c.283-.381.565-.78.848-1.192a236.743 236.743 0 013.816-5.186 258.325 258.325 0 006.253-8.814c.281-.415.582-.846.9-1.296 1.165-1.486 2.016-3.026 2.555-4.623.256-1.286.048-2.28-.623-2.985-.671-.702-1.617-1.042-2.837-1.019-.8.025-1.586.14-2.353.34-.35.102-.7.185-1.048.25-3.068.527-5.971.052-8.706-1.419-2.735-1.474-4.577-3.766-5.519-6.874-.765-3.525-.169-6.392 1.784-8.6 1.955-2.209 4.623-3.399 8.004-3.575.175.002.348.004.523.004zm68.448 66.691c-.373.775-.744 1.536-1.111 2.276-.661 1.288-1.396 2.514-2.205 3.679s-1.838 2.08-3.076 2.747c-1.424.7-2.812.99-4.154.873-1.346-.121-2.789-.411-4.325-.871a27.646 27.646 0 01-5.244-1.861c-1.667-.792-2.943-1.972-3.827-3.541-.861-1.851-1.044-3.781-.557-5.796a25.715 25.715 0 012.155-5.767 1677.74 1677.74 0 015.398-11.361 7190.599 7190.599 0 007.051-14.967c1.28-2.899 2.66-5.732 4.139-8.502a41.021 41.021 0 015.3-7.674c2.87-3.21 6.305-5.377 10.309-6.503 3.135-.877 6.349-.782 9.646.294 4.742 1.838 8.318 4.998 10.73 9.481a28.243 28.243 0 012.758 7.399 99.177 99.177 0 011.424 7.922c.236 1.436.477 2.855.719 4.256.417 2.434.855 4.873 1.309 7.314l2.62 14.625c.354 1.888.646 3.787.871 5.703a22.951 22.951 0 01-.029 5.673c-.3 2.464-1.13 4.665-2.493 6.603-1.363 1.94-3.281 3.222-5.757 3.848a24.5 24.5 0 01-6.528.352 27.902 27.902 0 01-6.299-.746c-2.138-.498-3.816-1.672-5.034-3.525a10.256 10.256 0 01-.948-4.41c-.004-.5-.029-.986-.071-1.457a216.067 216.067 0 01-.265-3.362l-.767-.156a175.504 175.504 0 01-11.739-2.546zm12.105-9.49a171.026 171.026 0 01-.025-5.286l.023-3.195a4.965 4.965 0 00-.242-1.411c-.148-.473-.44-.792-.869-.953-.475-.1-.913.031-1.309.394a3.69 3.69 0 00-.902 1.28 258.51 258.51 0 00-3.86 8.054c2.388.316 4.781.69 7.184 1.117z"
        data-original="#4171b7"
      ></path>
      <path
        fill="#e28c1a"
        d="M388.572 219.501c-2.251 19.429-17.569 35.358-35.199 43.768-17.656 8.417-37.513 10.646-56.962 12.737-32.376 3.53-64.759 7.034-97.143 10.538-18.904 2.054-37.918 4.111-56.228 9.286-18.284 5.167-36.036 13.638-49.614 26.956-5.91 5.796-10.996 12.481-17.325 17.862-6.336 5.355-14.375 9.447-22.617 8.674-8.276-.792-16.228-7.787-15.827-16.068l49.017-58.458 113.316-45.713 135.106-21.472z"
        data-original="#e28c1a"
      ></path>
      <path
        fill="#272526"
        d="M353.361 264.331c-.398 0-.78-.223-.963-.609a1.065 1.065 0 01.504-1.421c15.171-7.239 32.229-22.318 34.599-42.932.067-.586.611-.994 1.184-.938a1.07 1.07 0 01.938 1.184c-2.068 17.969-15.786 35.062-35.804 44.612a1.07 1.07 0 01-.458.104zm-154.087 23.283a1.067 1.067 0 01-.113-2.129l97.133-10.534c.59-.05 1.113.358 1.176.946a1.067 1.067 0 01-.946 1.176l-97.133 10.534a.908.908 0 01-.117.007zm-145.799 62.77c-.035 0-.069-.002-.104-.004-8.462-.817-17.229-7.914-16.793-17.179.025-.588.521-1.08 1.115-1.015a1.065 1.065 0 011.015 1.115c-.371 7.933 7.537 14.246 14.867 14.953a1.068 1.068 0 01-.1 2.13z"
        className="hovered-path"
        data-original="#272526"
      ></path>
      <path
        fill="#fdd125"
        d="M360.331 265.131c-26.701-6.521-54.126-9.661-81.552-9.58-4.374 3.569-8.345 7.728-12.478 11.566-7.165 6.601-16.155 12.639-25.842 11.566-7.218-.832-13.337-5.448-20.019-8.292-6.655-2.844-15.618-3.381-20.046 2.361-3.837 5.018-2.281 12.371.886 17.845 3.166 5.474 7.701 10.17 9.902 16.101 4.75 12.747-5.018 28.686-18.516 30.243-13.525 1.583-26.674-11.673-24.983-25.171.751-5.93 3.542-11.351 4.508-17.228.456-2.925 1.073-5.206-1.798-6.333-2.737-1.073-6.118-1.395-9.017-1.717-12.022-1.369-24.473.859-35.207 6.467-3.569 1.825-6.924 4.052-10.036 6.574a62.562 62.562 0 00-14.411 16.772c-1.798 3.059-3.837 6.601-4.723 10.063-.778 3.059.913 6.279 2.335 9.043 6.091 11.888 20.099 21.173 20.233 35.583.081 9.661-7.89 18.758-17.496 19.885-9.607 1.154-19.509-5.823-21.656-15.242-2.818-12.237 6.118-25.654 1.1-37.166-2.227-5.152-7.245-9.016-12.827-9.821a15.364 15.364 0 00-5.313.134c-.563.429-1.154.886-1.717 1.342-4.884 3.837-9.822 7.594-15.055 10.009-7.38 3.408-15.645-2.63-14.759-10.707 5.77-53.804 30.538-105.085 66.631-145.499 39.045-43.687 90.729-75.084 146.143-94.11 118.37-4.67 151.699 57.909 115.713 175.312z"
        data-original="#fdd125"
      ></path>
      <path
        fill="#272526"
        d="M360.331 265.131c-26.701-6.521-54.126-9.661-81.552-9.58-4.374 3.569-8.345 7.728-12.478 11.566-7.165 6.601-16.155 12.639-25.842 11.566-7.218-.832-13.337-5.448-20.019-8.292-6.655-2.844-15.618-3.381-20.046 2.361-3.837 5.018-2.281 12.371.886 17.845 3.166 5.474 7.701 10.17 9.902 16.101 4.75 12.747-5.018 28.686-18.516 30.243-13.525 1.583-26.674-11.673-24.983-25.171.751-5.93 3.542-11.351 4.508-17.228.456-2.925 1.073-5.206-1.798-6.333-2.737-1.073-6.118-1.395-9.017-1.717-12.022-1.369-24.473.859-35.207 6.467-3.569 1.825-6.924 4.052-10.036 6.574a62.562 62.562 0 00-14.411 16.772c-1.798 3.059-3.837 6.601-4.723 10.063-.778 3.059.913 6.279 2.335 9.043 6.091 11.888 20.099 21.173 20.233 35.583.081 9.661-7.89 18.758-17.496 19.885-9.607 1.154-19.509-5.823-21.656-15.242-2.818-12.237 6.118-25.654 1.1-37.166-2.227-5.152-7.245-9.016-12.827-9.821a15.364 15.364 0 00-5.313.134c-.563.429-1.154.886-1.717 1.342-3.542 2.791-7.138 5.528-10.841 7.755a56.262 56.262 0 013.113-15.564c5.609-15.833 18.436-28.928 34.134-34.885 9.365-3.515 19.938-4.804 27.613-11.217 8.802-7.353 12.183-20.233 22.032-26.11 12.451-7.406 28.633-.161 42.775-3.408 8.855-2.013 16.208-8.024 23.212-13.847 8.963-7.487 17.952-14.974 25.708-23.695 5.93-6.682 11.271-14.383 12.639-23.212 1.395-8.802-2.093-18.892-10.036-22.944-7.218-3.677-15.833-1.744-23.883-.832-8.024.939-17.657-.027-21.87-6.923-3.354-5.474-1.878-12.693 1.154-18.328 3.059-5.662 7.487-10.492 10.358-16.235 2.066-4.159 3.22-8.587 3.837-13.149a391.794 391.794 0 0143.016-17.711c118.369-4.672 151.698 57.907 115.712 175.31z"
        className="hovered-path"
        data-original="#272526"
        opacity="0.1"
      ></path>
      <path
        fill="#272526"
        d="M334.8 250.966c-3.066 0-6.059-.223-8.831-.561a1.066 1.066 0 11.258-2.118c11.053 1.34 25.801.861 33.355-9.052a1.066 1.066 0 011.696 1.292c-6.215 8.161-16.707 10.439-26.478 10.439zm-68.495 17.21a1.066 1.066 0 01-.724-1.851 267.394 267.394 0 004.104-3.908c5.709-5.515 11.611-11.215 19.129-14.158a1.068 1.068 0 01.78 1.988c-7.122 2.787-12.868 8.337-18.427 13.706a254.069 254.069 0 01-4.139 3.939 1.06 1.06 0 01-.723.284zm-55.115 39.593c-.434 0-.84-.265-1-.696-1.324-3.564-3.512-6.645-5.828-9.904-1.374-1.934-2.795-3.935-4.006-6.036-3.197-5.536-5.086-13.437-.805-19.019 4.717-6.142 14.102-5.784 21.314-2.705a1.068 1.068 0 01-.838 1.964c-6.451-2.76-14.765-3.199-18.783 2.043-3.641 4.746-1.89 11.714.959 16.651 1.163 2.013 2.555 3.973 3.9 5.867 2.295 3.231 4.665 6.57 6.088 10.398a1.068 1.068 0 01-1.001 1.437zm-20.682 30.366c-5.98 0-12.116-2.662-16.791-7.374-5.271-5.315-7.922-12.466-7.093-19.129.4-3.224 1.399-6.307 2.361-9.288.84-2.595 1.707-5.277 2.145-7.977l.1-.607c.475-2.837.548-3.852-1.217-4.552-2.393-.948-5.407-1.284-8.066-1.58l-.69-.077a1.068 1.068 0 01-.94-1.182 1.079 1.079 0 011.182-.94l.684.077c2.793.311 5.957.663 8.618 1.717 3.458 1.371 2.968 4.302 2.534 6.891l-.1.594c-.461 2.86-1.355 5.621-2.218 8.291-.934 2.887-1.899 5.871-2.276 8.894-.75 6.019 1.676 12.51 6.49 17.364 4.811 4.85 11.27 7.337 17.306 6.626a1.076 1.076 0 011.184.938 1.07 1.07 0 01-.938 1.184c-.751.088-1.512.13-2.275.13zm-92.121-2.233l.948-.488-.99.406c-1.444-2.81-3.239-6.305-2.378-9.717.923-3.672 3.093-7.364 4.838-10.33a62.873 62.873 0 0114.667-17.07 61.205 61.205 0 0110.194-6.705c.521-.267 1.167-.071 1.44.452s.069 1.167-.452 1.44a58.742 58.742 0 00-9.836 6.472 60.759 60.759 0 00-14.173 16.491c-1.676 2.849-3.76 6.397-4.61 9.771-.663 2.632.863 5.6 2.209 8.222zm1.634 56.172c-9.383 0-18.544-7.003-20.657-16.203a1.069 1.069 0 01.8-1.28 1.064 1.064 0 011.28.8c2.043 8.898 11.397 15.488 20.497 14.438 9.064-1.073 16.649-9.692 16.56-18.821a1.068 1.068 0 011.057-1.078h.01c.586 0 1.061.471 1.067 1.057.098 10.167-8.348 19.765-18.444 20.959a18.35 18.35 0 01-2.17.128zm-18.497-52.535a1.07 1.07 0 01-.98-.642c-1.799-4.144-5.894-7.249-12.172-9.229-2.97-.928-9.957 2.597-13.573 6.882a1.066 1.066 0 11-1.63-1.376c3.864-4.581 11.622-8.879 15.845-7.541 6.893 2.174 11.432 5.678 13.489 10.413a1.072 1.072 0 01-.979 1.493z"
        className="hovered-path"
        data-original="#272526"
      ></path>
      <path
        fill="#f56176"
        d="M127.645 224.467c.388 9.221 6.585 17.945 15.166 21.346 6.173 2.447 13.186 2.224 19.549.325 6.363-1.9 12.147-5.382 17.489-9.326 7.854-5.799 15.19-13.112 17.964-22.472 2.774-9.361-.391-21.007-9.128-25.364-5.254-2.62-11.491-2.268-17.256-1.152-17.136 3.313-44.678 15.393-43.784 36.643zm93.202-98.047c-5.455 7.455-11.18 15.89-10.122 25.067.965 8.374 7.839 15.355 15.886 17.865 8.047 2.511 16.948 1.048 24.584-2.522s14.179-9.102 20.27-14.928c3.708-3.547 7.337-7.293 9.776-11.808s3.587-9.94 2.085-14.847c-2.284-7.461-10.022-11.966-17.623-13.727-18.399-4.263-39.071 4.589-48.684 20.846M50.032 307.817c.201 3.79 1.397 8.021 4.771 9.759 4.119 2.122 8.996-.54 12.805-3.179 4.052-2.807 8.087-5.713 11.419-9.346s5.95-8.078 6.659-12.956-.707-10.2-4.341-13.531c-16.226-14.878-31.99 16.5-31.313 29.253z"
        data-original="#f56176"
      ></path>
      <path
        fill="#272526"
        d="M179.849 237.879a1.067 1.067 0 01-.634-1.926c9.544-7.049 15.292-14.219 17.573-21.916 2.516-8.491-.004-19.832-8.581-24.109a1.067 1.067 0 11.955-1.909c9.577 4.777 12.439 17.289 9.673 26.622-2.416 8.16-8.42 15.692-18.352 23.029-.19.14-.413.209-.634.209zm-37.04 9.002c-.131 0-.265-.023-.394-.075-8.921-3.537-15.434-12.706-15.838-22.295-.957-22.829 28.786-34.668 44.649-37.738a1.08 1.08 0 011.251.846 1.071 1.071 0 01-.846 1.251c-15.238 2.949-43.818 14.173-42.919 35.554.367 8.773 6.328 17.162 14.492 20.399a1.068 1.068 0 01-.395 2.058zm140.518-120.567a1.07 1.07 0 01-1.021-.755c-1.876-6.132-8.174-10.99-16.845-13a1.068 1.068 0 01.484-2.08c9.421 2.182 16.299 7.587 18.404 14.454a1.071 1.071 0 01-1.022 1.381zm-48.172 45.367c-3.078 0-6.059-.434-8.864-1.309-8.973-2.801-15.655-10.342-16.626-18.763a1.07 1.07 0 012.122-.246c.861 7.478 7.087 14.457 15.142 16.97 7.162 2.236 15.624 1.359 23.815-2.47 7.895-3.691 14.532-9.519 19.984-14.732a1.067 1.067 0 111.476 1.542c-5.578 5.334-12.381 11.301-20.555 15.123-5.505 2.576-11.146 3.885-16.494 3.885zM58.038 319.405c-1.261 0-2.516-.258-3.723-.882-4.281-2.205-5.188-7.62-5.348-10.651-.502-9.435 7.37-27.971 18.014-32.994 5.148-2.43 10.361-1.43 15.084 2.899 3.689 3.381 5.482 8.925 4.677 14.471-.675 4.64-3.07 9.317-6.93 13.523-3.406 3.714-7.43 6.613-11.597 9.502-2.757 1.911-6.494 4.132-10.177 4.132zm14.45-43.688c-1.519 0-3.051.365-4.596 1.092-9.754 4.604-17.256 22.285-16.795 30.951.138 2.574.863 7.149 4.194 8.866 3.725 1.909 8.462-.859 11.707-3.108 4.066-2.816 7.985-5.638 11.243-9.19 3.566-3.889 5.776-8.172 6.388-12.389.707-4.854-.83-9.679-4.006-12.591-2.639-2.418-5.363-3.631-8.135-3.631z"
        className="hovered-path"
        data-original="#272526"
      ></path>
      <path
        fill="#12a883"
        d="M161.953 150.812c-1.326 4.779.987 10.319 5.318 12.736 3.777 2.108 8.361 1.856 12.686 1.862 4.325.005 9.078.514 12.087 3.621.465-7.133-3.531-13.895-9.525-17.791-5.993-3.895-14.237-3.749-20.566-.428zm75.874 91.246c.032-4.959-3.648-9.703-8.459-10.906-4.196-1.049-8.555.391-12.732 1.515s-8.897 1.874-12.614-.34c1.414 7.007 7.037 12.491 13.84 14.687s14.722-.097 19.965-4.956z"
        data-original="#12a883"
      ></path>
      <path
        fill="#272526"
        d="M192.044 170.099c-.283 0-.563-.113-.767-.325-2.822-2.914-7.533-3.291-11.322-3.295l-1.278.004c-4.075-.004-8.279.035-11.928-2.003-4.785-2.672-7.291-8.671-5.823-13.952.077-.283.271-.523.531-.659 6.92-3.633 15.617-3.441 21.643.477 6.647 4.319 10.482 11.505 10.009 18.754a1.069 1.069 0 01-1.065.999zm-12.087-5.755c3.508.004 7.747.317 11.02 2.441-.386-5.717-3.714-11.188-9.039-14.65-5.284-3.431-12.883-3.652-19.067-.592-.932 4.189 1.167 8.979 4.921 11.074 3.162 1.765 7.097 1.742 10.876 1.732zm37.905 83.738c-.108 0-.219-.017-.327-.052-7.543-2.432-13.123-8.368-14.559-15.492a1.068 1.068 0 012.093-.421c1.284 6.365 6.311 11.687 13.12 13.883a1.066 1.066 0 01-.327 2.082zm19.965-4.957h-.006a1.067 1.067 0 01-1.061-1.073c.027-4.452-3.333-8.785-7.651-9.865-3.506-.875-7.289.163-10.951 1.169l-1.244.34a1.063 1.063 0 01-1.307-.752 1.065 1.065 0 01.752-1.307l1.232-.338c3.925-1.082 7.981-2.193 12.035-1.184 5.319 1.332 9.304 6.47 9.269 11.949a1.069 1.069 0 01-1.068 1.061z"
        className="hovered-path"
        data-original="#272526"
      ></path>
      <path
        fill="#eee"
        d="M117.427 280.505a5.919 5.919 0 01-4.17 7.261 5.928 5.928 0 01-7.261-4.17 5.92 5.92 0 014.169-7.261 5.912 5.912 0 017.262 4.17zm115.634-89.794a5.919 5.919 0 01-4.17 7.261 5.928 5.928 0 01-7.261-4.17 5.92 5.92 0 014.169-7.261 5.912 5.912 0 017.262 4.17zm67.839 34.041a5.919 5.919 0 01-4.17 7.261 5.928 5.928 0 01-7.261-4.17 5.92 5.92 0 014.169-7.261 5.911 5.911 0 017.262 4.17z"
        data-original="#eeeeee"
      ></path>
      <path
        fill="#272526"
        d="M111.706 289.042a6.956 6.956 0 01-3.472-.934 6.934 6.934 0 01-3.266-4.235 6.926 6.926 0 01.686-5.307 6.94 6.94 0 014.233-3.26c3.716-1.007 7.564 1.201 8.571 4.919 1.007 3.718-1.201 7.564-4.921 8.571a7.001 7.001 0 01-1.831.246zm.006-11.845a4.82 4.82 0 00-1.267.169 4.827 4.827 0 00-2.941 2.266 4.814 4.814 0 00-.477 3.685 4.817 4.817 0 002.27 2.941 4.833 4.833 0 003.681.479 4.861 4.861 0 003.42-5.953 4.864 4.864 0 00-4.686-3.587z"
        className="hovered-path"
        data-original="#272526"
      ></path>
      <path
        fill="#eee"
        d="M204.707 131.226a5.919 5.919 0 01-4.17 7.261 5.928 5.928 0 01-7.261-4.17 5.92 5.92 0 014.169-7.261 5.912 5.912 0 017.262 4.17z"
        data-original="#eeeeee"
      ></path>
      <path
        fill="#272526"
        d="M198.993 139.76c-3.078 0-5.907-2.053-6.747-5.163-1.005-3.72 1.203-7.566 4.921-8.571a6.93 6.93 0 015.307.682 6.942 6.942 0 013.262 4.241 6.93 6.93 0 01-.682 5.298 6.948 6.948 0 01-4.237 3.268 6.931 6.931 0 01-1.824.245zm.013-11.845a4.86 4.86 0 00-4.7 6.124 4.85 4.85 0 005.953 3.418 4.812 4.812 0 002.943-2.27 4.824 4.824 0 00.475-3.681v-.002a4.824 4.824 0 00-2.266-2.945 4.83 4.83 0 00-2.405-.644z"
        className="hovered-path"
        data-original="#272526"
      ></path>
      <path
        fill="#eee"
        d="M176.876 261.125a5.919 5.919 0 01-4.17 7.261 5.928 5.928 0 01-7.261-4.17 5.92 5.92 0 014.169-7.261 5.912 5.912 0 017.262 4.17z"
        data-original="#eeeeee"
      ></path>
      <path
        fill="#272526"
        d="M171.156 269.662a6.956 6.956 0 01-3.472-.934 6.934 6.934 0 01-3.266-4.235 6.926 6.926 0 01.686-5.307 6.94 6.94 0 014.233-3.26c3.714-1.007 7.562 1.201 8.571 4.919 1.007 3.718-1.201 7.564-4.921 8.571a6.965 6.965 0 01-1.831.246zm.006-11.845a4.82 4.82 0 00-1.267.169 4.827 4.827 0 00-2.941 2.266 4.814 4.814 0 00-.477 3.685 4.817 4.817 0 002.27 2.941 4.825 4.825 0 003.681.479 4.86 4.86 0 003.42-5.953 4.865 4.865 0 00-4.686-3.587zm56.186-58.572c-3.078 0-5.905-2.053-6.747-5.163-1.007-3.72 1.201-7.564 4.919-8.571a6.952 6.952 0 015.309.682 6.94 6.94 0 013.262 4.237 6.939 6.939 0 01-.682 5.302 6.948 6.948 0 01-4.237 3.268 6.931 6.931 0 01-1.824.245zm.014-11.845a4.86 4.86 0 00-4.702 6.124 4.86 4.86 0 005.953 3.418c1.255-.34 2.299-1.144 2.943-2.27s.813-2.432.475-3.683a4.819 4.819 0 00-2.266-2.945 4.805 4.805 0 00-2.403-.644zm67.827 45.885c-3.081 0-5.909-2.053-6.749-5.163-1.005-3.72 1.203-7.566 4.921-8.571a6.932 6.932 0 015.307.684 6.94 6.94 0 013.262 4.237c1.007 3.72-1.201 7.564-4.919 8.571a6.953 6.953 0 01-1.822.242zm-.007-11.842a4.86 4.86 0 00-4.683 6.122c.7 2.585 3.37 4.108 5.955 3.42a4.863 4.863 0 003.416-5.953 4.862 4.862 0 00-4.688-3.589z"
        className="hovered-path"
        data-original="#272526"
      ></path>
      <path
        fill="#eee"
        d="M108.306 215.088c1.285 2.891.111 6.265-2.675 7.802-2.941 1.622-5.878 3.647-8.08 6.218-3.026 3.532-4.281 8.005-3.196 11.398 1.313 4.109 5.917 6.72 9.907 7.485 3.579.688 7.435.35 11.006-.333 3.145-.602 6.224 1.236 7.072 4.307v.001c.95 3.44-1.272 6.936-4.795 7.613-4.809.924-10.215 1.379-15.64.339-9.161-1.765-16.682-7.916-19.165-15.68-2.37-7.414-.243-16.224 5.554-22.992 3.353-3.916 7.498-6.792 11.494-8.991 3.138-1.728 7.071-.422 8.518 2.833zm131.775-3.799c1.321-2.875 4.626-4.223 7.616-3.148 3.156 1.136 6.612 2.002 9.993 1.956 4.645-.063 8.828-2.076 10.657-5.132 2.216-3.701 1.138-8.882-.919-12.382-1.845-3.141-4.641-5.812-7.508-8.04-2.526-1.963-3.178-5.488-1.433-8.154l.001-.001c1.953-2.986 6.042-3.629 8.873-1.432 3.865 2.999 7.771 6.756 10.569 11.515 4.718 8.042 5.065 17.752.878 24.746-3.998 6.678-12.009 10.904-20.91 11.024-5.149.071-10.039-1.14-14.325-2.686-3.365-1.215-4.979-5.03-3.492-8.266z"
        data-original="#eeeeee"
      ></path>
      <path
        fill="#272526"
        d="M108.427 261.581c-2.347 0-4.577-.206-6.722-.617-9.54-1.836-17.383-8.275-19.982-16.403-2.482-7.766-.275-16.966 5.761-24.011 2.987-3.487 6.843-6.507 11.789-9.231a7.228 7.228 0 015.771-.521 7.142 7.142 0 014.237 3.856c1.513 3.408.165 7.349-3.137 9.169-3.397 1.874-5.942 3.829-7.783 5.978-2.791 3.258-3.964 7.332-2.991 10.38 1.18 3.693 5.415 6.057 9.09 6.761 2.978.571 6.447.465 10.607-.333 3.739-.721 7.305 1.463 8.302 5.071a7.048 7.048 0 01-.819 5.653 7.29 7.29 0 01-4.802 3.295c-3.316.635-6.407.953-9.321.953zm-5.686-49.028c-.84 0-1.674.213-2.439.636-4.717 2.597-8.379 5.461-11.197 8.75-5.559 6.486-7.608 14.907-5.348 21.972 2.364 7.395 9.567 13.266 18.35 14.957 4.533.869 9.519.757 15.236-.338a5.145 5.145 0 003.395-2.326 4.932 4.932 0 00.571-3.956c-.696-2.524-3.201-4.05-5.842-3.543-4.429.846-8.164.955-11.409.333-4.294-.823-9.273-3.681-10.722-8.208-1.192-3.737.144-8.612 3.404-12.418 2.009-2.347 4.75-4.458 8.375-6.457 2.324-1.282 3.276-4.048 2.216-6.434a4.935 4.935 0 00-2.968-2.699 5.08 5.08 0 00-1.622-.269zm154.718 10.757c-4.454 0-9.121-.9-14.25-2.751a7.22 7.22 0 01-4.194-3.983 7.155 7.155 0 01.096-5.734c1.557-3.387 5.409-4.975 8.946-3.706 3.647 1.313 6.795 1.943 9.619 1.893 4.283-.058 8.112-1.868 9.757-4.612 1.99-3.327.969-8.07-.923-11.295-1.534-2.61-3.904-5.14-7.245-7.737-3.001-2.332-3.718-6.451-1.669-9.579a7.035 7.035 0 014.779-3.124 7.288 7.288 0 015.64 1.432c4.813 3.735 8.358 7.601 10.834 11.818 4.915 8.373 5.257 18.512.873 25.832-4.187 6.995-12.545 11.42-21.81 11.545l-.453.001zm-16.409-11.576a4.938 4.938 0 00-.065 4.016 4.996 4.996 0 002.949 2.799c5.052 1.824 9.613 2.664 13.948 2.624 8.531-.117 16.199-4.141 20.009-10.507 3.987-6.661 3.641-15.947-.884-23.656-2.336-3.977-5.707-7.645-10.303-11.213a5.155 5.155 0 00-3.979-1.011 4.926 4.926 0 00-3.345 2.184c-1.434 2.193-.921 5.086 1.192 6.73 3.56 2.766 6.103 5.494 7.774 8.341 2.214 3.766 3.356 9.394.915 13.471-2.016 3.366-6.551 5.584-11.557 5.65-3.099.056-6.476-.619-10.369-2.018-2.5-.907-5.193.22-6.285 2.59z"
        className="hovered-path"
        data-original="#272526"
      ></path>
      <path
        fill="#fdd125"
        d="M129.677 357.093c6.779 3.451 9.907 11.647 10.027 19.254.12 7.606-2.133 15.024-3.302 22.54-1.169 7.517-1.101 15.744 3.131 22.065 6.442 9.622 20.117 11.339 31.444 8.935 9.519-2.02 19.549-7.419 21.973-16.844 2.415-9.392-3.739-18.964-11.191-25.171s-16.461-10.525-23.136-17.56c-13.364-14.084-14.487-35.454-14.848-54.866"
        data-original="#fdd125"
      ></path>
      <path
        fill="#272526"
        d="M161.922 431.9c-8.794 0-18.127-2.664-23.275-10.355-3.741-5.588-4.819-13.052-3.299-22.823.371-2.384.855-4.785 1.324-7.107 1.007-4.99 2.047-10.148 1.965-15.253-.102-6.584-2.639-14.855-9.444-18.319a1.065 1.065 0 01-.467-1.434 1.065 1.065 0 011.434-.467c7.651 3.891 10.498 12.979 10.611 20.186.085 5.334-.98 10.607-2.007 15.707-.465 2.301-.944 4.677-1.307 7.016-1.434 9.215-.465 16.184 2.962 21.305 6.457 9.644 20.374 10.596 30.337 8.485 4.225-.896 18.239-4.704 21.162-16.066 2.349-9.142-4.06-18.435-10.842-24.086-2.985-2.487-6.301-4.717-9.506-6.874-4.756-3.199-9.675-6.509-13.719-10.772-13.291-14.004-14.746-34.282-15.142-55.579a1.068 1.068 0 011.046-1.088h.021c.582 0 1.057.465 1.067 1.046.388 20.864 1.792 40.704 14.554 54.154 3.883 4.089 8.702 7.332 13.364 10.469 3.249 2.186 6.611 4.448 9.681 7.005 7.282 6.065 14.14 16.151 11.543 26.256-2.178 8.47-10.696 15.057-22.787 17.623-2.86.608-6.033.971-9.276.971zM360.33 266.198c-.083 0-.169-.01-.252-.031-25.955-6.338-52.961-9.552-80.288-9.552l-1.009.002h-.002a1.067 1.067 0 01-.002-2.134l1.013-.002c27.498 0 54.673 3.233 80.793 9.615a1.067 1.067 0 01-.253 2.102zM42.241 342.172c-2.341 0-4.656-.732-6.663-2.172-3.452-2.472-5.242-6.467-4.794-10.686 5.598-52.211 29.365-104.105 66.924-146.124a1.068 1.068 0 011.592 1.422c-37.265 41.69-60.844 93.161-66.394 144.93-.367 3.443 1.098 6.705 3.914 8.725 2.768 1.984 6.259 2.324 9.335.898 2.18-.994 4.429-2.291 7.068-4.071.01-.013.023-.025.033-.035 2.776-1.901 5.35-3.887 7.741-5.771l.29-.215a1.067 1.067 0 011.176 1.782l-.213.158c-2.307 1.822-4.858 3.791-7.476 5.573-.056.06-.121.117-.192.165-2.81 1.905-5.204 3.289-7.535 4.354a11.446 11.446 0 01-4.806 1.067z"
        className="hovered-path"
        data-original="#272526"
      ></path>
      <path
        fill="#e28c1a"
        d="M402.247 253.967c.832-3.462.698-7.058-.725-10.358-2.871-6.655-9.741-10.493-16.289-13.605-7.353-3.515-15.108-6.762-23.266-6.95-9.339-.241-17.308 4.052-20.636 11.029l-.134-.054c11.351-27.613 9.231-60.432-5.582-86.381s-41.997-44.439-71.569-48.679c-9.231-1.342-18.758-1.369-27.667-4.186-8.909-2.818-17.47-9.285-19.348-18.436-2.12-10.331 5.152-20.824 14.625-25.493 9.446-4.669 20.475-4.723 30.967-3.864 33.276 2.657 66.121 13.632 93.171 33.195 27.023 19.589 48.008 47.954 56.836 80.129 8.509 31.074 5.262 65.557-10.383 93.653z"
        data-original="#e28c1a"
      ></path>
      <path
        fill="#272526"
        d="M402.247 253.967c.832-3.462.698-7.058-.725-10.358-2.871-6.655-9.741-10.493-16.289-13.605-4.132-1.959-8.372-3.864-12.747-5.152 5.152-3.811 11.646-6.253 14.545-11.861 3.971-7.675-.939-16.96-6.709-23.427-5.743-6.44-12.881-12.72-14.088-21.28-1.664-12.076 9.15-24.661 3.783-35.61-5.286-10.788-21.87-10.358-29.357-19.777-4.616-5.823-4.696-14.088-8.346-20.582-3.542-6.306-10.331-10.439-17.47-11.673-7.138-1.261-14.545.161-21.226 2.952-8.453 3.569-17.174 9.446-25.949 6.816-4.723-1.422-8.4-5.099-12.854-7.165-8.346-3.837-18.275-1.449-26.486 2.63a75.72 75.72 0 00-4.106 2.2c-3.569-3.14-6.226-7.084-7.192-11.727-2.12-10.331 5.152-20.824 14.625-25.493 9.446-4.669 20.475-4.723 30.967-3.864 33.276 2.657 66.121 13.632 93.171 33.195 27.023 19.589 48.008 47.954 56.836 80.129 8.509 31.073 5.262 65.556-10.383 93.652z"
        className="hovered-path"
        data-original="#272526"
        opacity="0.1"
      ></path>
      <path
        fill="#272526"
        d="M400.507 258.074a1.065 1.065 0 01-.915-1.615c16.445-27.485 20.932-63.32 12.003-95.858a1.067 1.067 0 01.748-1.311 1.072 1.072 0 011.311.748c9.079 33.086 4.506 69.542-12.233 97.517a1.064 1.064 0 01-.914.519zM355.783 81.259c-.217 0-.436-.067-.625-.202-25.995-18.813-58.022-30.228-92.617-33.013-.588-.046-1.025-.561-.978-1.148s.559-1.009 1.148-.978c34.987 2.816 67.385 14.369 93.696 33.409a1.067 1.067 0 01-.624 1.932zm-91.721 18.771c-.052 0-.102-.004-.154-.01-2.91-.419-5.909-.713-8.808-.998-6.32-.621-12.854-1.263-19.046-3.226-8.337-2.641-17.989-9.085-20.078-19.244-2.343-11.405 5.871-22.041 15.196-26.652a1.068 1.068 0 01.946 1.914c-8.383 4.144-16.155 14.071-14.05 24.309 1.901 9.254 10.872 15.18 18.631 17.639 5.978 1.895 12.399 2.526 18.61 3.137 2.922.288 5.944.584 8.902 1.009a1.067 1.067 0 01-.149 2.122zm77.124 135.065a1.068 1.068 0 01-.988-1.473c11.182-27.179 9.075-59.917-5.5-85.441a1.07 1.07 0 01.398-1.457 1.076 1.076 0 011.457.398c14.892 26.083 17.045 59.537 5.621 87.312a1.07 1.07 0 01-.988.661z"
        className="hovered-path"
        data-original="#272526"
      ></path>
      <path
        fill="#cc7309"
        d="M361.977 223.044c8.153.203 15.903 3.441 23.265 6.95 6.531 3.112 13.413 6.968 16.27 13.616 3.571 8.308-.941 18.604-8.653 23.326s-17.645 4.603-26.208 1.696c-9.986-3.39-22.531-9.76-25.931-20.432-4.695-14.739 6.632-25.521 21.257-25.156z"
        data-original="#cc7309"
      ></path>
      <path
        fill="#272526"
        d="M392.855 266.929c-7.701 4.723-17.63 4.616-26.191 1.691-5.233-1.771-11.163-4.347-16.128-7.943.188-.429.376-.832.59-1.234 2.576-4.669 8.748-6.95 13.74-5.125 3.569 1.315 7.272 4.455 10.653 2.737 2.71-1.369 3.139-5.313 1.664-7.943-1.503-2.63-4.32-4.186-7.058-5.421-2.764-1.261-5.689-2.361-7.809-4.508-3.623-3.596-4.133-9.553-2.093-14.222.295-.671.617-1.288.993-1.905h.751c8.158.188 15.913 3.435 23.266 6.95 6.548 3.113 13.417 6.95 16.289 13.605 3.57 8.317-.938 18.595-8.667 23.318z"
        className="hovered-path"
        data-original="#272526"
        opacity="0.1"
      ></path>
      <path
        fill="#272526"
        d="M366.652 269.698c-.115 0-.229-.019-.344-.056-10.167-3.452-23.035-9.919-26.606-21.12-2.105-6.611-1.217-12.981 2.501-17.937 4.196-5.592 11.58-8.8 19.801-8.608a1.068 1.068 0 01-.027 2.134h-.027c-7.562-.192-14.256 2.712-18.039 7.756-3.293 4.387-4.064 10.073-2.174 16.009 3.299 10.35 15.557 16.451 25.259 19.744.556.19.857.796.667 1.355a1.07 1.07 0 01-1.011.723zm26.208-1.697a1.067 1.067 0 01-.557-1.978c7.72-4.725 11.411-14.592 8.229-21.993-2.647-6.153-9.133-9.921-15.749-13.075a1.063 1.063 0 01-.504-1.421 1.068 1.068 0 011.421-.504c6.993 3.333 13.867 7.355 16.791 14.158 3.587 8.337-.486 19.398-9.075 24.657a1.06 1.06 0 01-.556.156z"
        className="hovered-path"
        data-original="#272526"
      ></path>
      <path
        fill="#272526"
        d="M369.835 258.055c-.092 0-.183-.013-.275-.035-4.969-1.332-11.33-4.035-13.423-9.36-1.253-3.189-1.015-6.365.667-8.946 1.882-2.889 5.4-4.713 9.41-4.879.579-.012 1.086.436 1.111 1.023a1.07 1.07 0 01-1.023 1.111c-3.32.135-6.203 1.599-7.712 3.91-1.311 2.016-1.474 4.435-.465 7.001 1.859 4.733 8.308 7.093 11.985 8.077.571.154.909.738.757 1.307-.13.476-.561.791-1.032.791zm12.153-1.597a1.068 1.068 0 01-.617-1.938c3.229-2.282 4.565-6.666 2.978-9.771-1.401-2.747-4.575-4.194-7.439-5.334a1.069 1.069 0 01-.598-1.386c.219-.548.84-.811 1.386-.598 3.464 1.38 6.897 3.101 8.552 6.347 2.049 4.012.415 9.613-3.645 12.485a1.06 1.06 0 01-.617.195z"
        className="hovered-path"
        data-original="#272526"
      ></path>
      <path
        fill="#f56176"
        d="M297.484 188.949c.32 6.033 2.224 12.769 7.595 15.536 6.557 3.379 14.321-.86 20.385-5.061 6.451-4.469 12.875-9.095 18.179-14.878 5.305-5.783 9.473-12.86 10.602-20.626s-1.126-16.238-6.91-21.541c-25.833-23.685-50.928 26.268-49.851 46.57z"
        data-original="#f56176"
      ></path>
      <path
        fill="#272526"
        d="M325.463 200.491a1.068 1.068 0 01-.608-1.945c6.499-4.502 12.766-9.014 18.002-14.723a1.067 1.067 0 011.572 1.442c-5.384 5.871-11.755 10.463-18.356 15.036-.187.128-.4.19-.61.19zm-27.98-10.475a1.066 1.066 0 01-1.065-1.011c-.788-14.857 11.589-44.028 28.323-51.923 7.949-3.743 16.009-2.188 23.313 4.51a1.067 1.067 0 01-1.442 1.572c-6.709-6.151-13.762-7.551-20.959-4.152-15.74 7.426-27.844 35.92-27.104 49.881a1.067 1.067 0 01-1.009 1.121c-.019.002-.038.002-.057.002z"
        className="hovered-path"
        data-original="#272526"
      ></path>
      <path
        fill="#f56176"
        d="M107.162 178.958c.201 3.79 1.397 8.021 4.771 9.759 4.119 2.122 8.996-.54 12.805-3.179 4.052-2.807 8.087-5.713 11.419-9.346s5.95-8.078 6.659-12.956-.707-10.2-4.341-13.531c-16.226-14.878-31.989 16.5-31.313 29.253z"
        data-original="#f56176"
      ></path>
      <path
        fill="#272526"
        d="M136.156 177.26a1.066 1.066 0 01-.786-1.788c3.566-3.889 5.776-8.175 6.388-12.391.707-4.852-.83-9.677-4.004-12.591a1.067 1.067 0 011.442-1.572c3.689 3.383 5.48 8.929 4.675 14.471-.675 4.642-3.07 9.319-6.93 13.525a1.061 1.061 0 01-.785.346zm-24.223 12.525c-.165 0-.331-.038-.488-.119-4.281-2.205-5.188-7.62-5.348-10.651a1.067 1.067 0 011.009-1.121c.625-.044 1.09.421 1.121 1.009.138 2.574.863 7.149 4.194 8.866a1.067 1.067 0 01-.488 2.016z"
        className="hovered-path"
        data-original="#272526"
      ></path>
      <path
        fill="#12a883"
        d="M56.384 271.821c5.966-1.241 10.719-6.89 10.925-12.987.18-5.318-2.673-10.189-5.099-14.923s-4.542-10.218-2.84-15.258c-8.055 3.507-13.196 11.685-14.082 20.433-.885 8.749 3.909 17.682 11.096 22.735z"
        data-original="#12a883"
      ></path>
      <path
        fill="#272526"
        d="M56.385 272.889a1.06 1.06 0 01-.613-.194c-7.789-5.475-12.429-15.007-11.545-23.717a1.077 1.077 0 011.169-.953c.586.058 1.013.582.953 1.169-.807 7.966 3.474 16.708 10.649 21.754a1.067 1.067 0 01-.613 1.941zm10.924-12.987h-.035a1.07 1.07 0 01-1.032-1.103c.154-4.517-2.088-8.829-4.256-13l-.725-1.401c-2.339-4.565-4.781-10.515-2.901-16.089a1.07 1.07 0 011.353-.669c.559.188.859.794.669 1.353-1.624 4.815.632 10.24 2.78 14.429l.719 1.39c2.295 4.417 4.669 8.981 4.496 14.056a1.071 1.071 0 01-1.068 1.034z"
        className="hovered-path"
        data-original="#272526"
      ></path>
      <path
        fill="#fff"
        d="M164.832 385.249c1.724 6.984 9.009 9.82 12.495 15.669 2.224 3.732 2.194 8.585.006 12.332-2.577 4.413-9.232 5.833-13.944 5.533-.629-.04-.723.893-.227 1.139 9.44 4.68 18.624-5.424 17.349-14.726-1.265-9.225-11.726-12.083-14.87-20.183-.17-.438-.925-.234-.809.236zM89.7 356.707c.408 2.193.838 4.486.34 6.703-.389 1.731-1.177 3.314-1.801 4.962-.546 1.441-.984 3.037-.964 4.59.022 1.754.753 3.456 1.563 4.988 1.725 3.263 5.55 4.091 8.979 4.43 2.485.245 7.01-.661 7.122-3.911.018-.531-.74-.742-1.054-.357-.962 1.179-1.553 2.116-3.133 2.529-1.671.437-3.427.041-5.06-.376-1.445-.369-3.031-.703-4.185-1.709-1.183-1.031-1.924-2.714-2.443-4.156-.717-1.995-.801-3.426-.05-5.354.474-1.218 1.081-2.38 1.544-3.603 1.111-2.934.432-5.949-.327-8.883-.09-.347-.594-.196-.531.147zm102.022-31.95c3.584.447 6.775-1.802 8.42-4.883 2.012-3.768 1.687-8.397.509-12.367-1.319-4.445-3.492-8.368-5.782-12.378-1.224-2.144-2.345-4.28-3.226-6.589-.811-2.125-1.117-4.351-1.796-6.502-.266-.841-1.548-.667-1.806.076-1.242 3.577.272 7.762 1.839 10.992 1.701 3.507 4.025 6.586 6.067 9.888 2.216 3.583 4.167 7.16 3.94 11.533-.231 4.462-2.993 9.626-8.106 9.281-.615-.041-.661.874-.059.949zM61.575 291.032c1.345-1.62 2.482-3.375 3.745-5.051 1.318-1.749 3.625-2.807 5.666-3.435 1.042-.321 2.211-.629 3.264-.196.905.372 1.784 1.113 2.466 1.799.89.895 1.393 1.919 1.603 3.163.164.971-.103 1.779-.239 2.719-.059.408.467.599.715.296 1.497-1.822.723-4.777-.744-6.332-.761-.807-1.74-1.545-2.649-2.175-1.008-.699-2.098-.865-3.302-.688-2.369.348-4.463 1.677-6.175 3.303-1.001.95-2.119 1.76-2.937 2.878-.813 1.112-1.399 2.171-1.876 3.459-.095.253.291.467.463.26zm80.264-68.642c-.338 4.806 2.987 8.667 7.324 10.33 4.949 1.898 10.721.365 15.29-1.882 5.318-2.616 9.804-6.604 13.401-11.276 2.908-3.777 5.925-8.231 6.047-13.134.024-.955-1.175-1.447-1.77-.644-2.602 3.513-4.014 7.723-6.479 11.339-2.789 4.092-6.428 8.035-10.419 10.977-3.877 2.859-8.405 5.117-13.365 4.374-4.95-.741-9.573-4.909-9.731-10.088-.005-.169-.286-.163-.298.004zm91.677-90.19c4.72-5.228 11.096-9.325 17.932-11.095 3.883-1.006 8.57-1.622 12.209.443 1.552.881 2.758 2.11 3.76 3.574 1.039 1.517 2.194 2.899 3.276 4.38.373.51 1.228.171 1.036-.475-1.112-3.76-2.58-7.161-6.146-9.25-3.717-2.177-8.704-1.294-12.685-.4-7.889 1.772-14.788 6.135-19.496 12.726-.055.077.048.17.114.097zm107.886 33.078c-.909 3.027-2.289 5.649-3.801 8.4-1.517 2.758-3.24 5.382-5.28 7.786-1.958 2.307-4.118 4.539-6.673 6.182-1.336.858-2.777 1.394-4.162 2.145-1.269.688-2.917 1.088-4.044 1.951-.545.418-.162 1.174.458 1.169 1.451-.011 3.229-1.043 4.532-1.65 1.458-.679 2.797-1.765 4.113-2.695 2.529-1.788 5.014-3.595 7.179-5.825a35.012 35.012 0 005.628-7.678c1.566-2.877 2.371-6.386 2.923-9.594.086-.503-.727-.679-.873-.191zm-27.215 27.376c-.39.114-.779.229-1.169.345-.093.028-.196.15-.226.239a.431.431 0 00.466.577l.035-.004.082-.01.141-.017.307-.036.618-.074c.126-.015.266-.142.326-.246a.536.536 0 00.055-.392.523.523 0 00-.635-.382zM236.912 78.166c-1.939-5.5-.736-11.777 3.559-15.717 4.076-3.739 9.593-5.101 15.002-4.82 13.115.682 24.751 8.759 36.804 13.114 1.178.425 1.732-1.268.821-1.913-6.175-4.378-13.545-7.31-20.642-9.865-6.417-2.31-13.512-3.985-20.361-3.112-10.014 1.276-24.136 12.117-16.764 23.145.576.86 1.916.12 1.581-.832zm125.572 23.163c11.827 12.837 21.191 28.03 27.387 44.347 3.172 8.354 5.596 17.032 6.811 25.892 1.163 8.486 2.262 17.699.643 26.18-.881 4.613-2.926 9.402-7.002 12.053-3.272 2.129-8.249 3.138-12.042 2.169-1.137-.29-1.856 1.525-.886 2.139 3.902 2.471 8.111 2.77 12.173.415 3.224-1.87 6.076-4.353 7.977-7.595 4.734-8.075 3.972-18.396 2.776-27.311-2.509-18.707-8.653-37.096-18.158-53.404-5.358-9.193-11.903-17.615-19.321-25.235-.225-.231-.576.113-.358.35z"
        data-original="#ffffff"
      ></path>
      <path
        fill="#272526"
        d="M291.228 91.444a.782.782 0 01-.246-.04c-2.464-.794-5.117-1.378-8.112-1.786a.8.8 0 01-.686-.9c.063-.436.45-.759.902-.684 3.089.419 5.832 1.023 8.387 1.849a.798.798 0 01.515 1.007.795.795 0 01-.76.554zm12.894-1.675a.787.787 0 01-.398-.106c-2.518-1.446-5.327-2.728-8.596-3.918a.803.803 0 01-.477-1.028.798.798 0 011.028-.477c3.354 1.223 6.244 2.543 8.841 4.035a.799.799 0 01-.398 1.494zm14.965 16.33a.802.802 0 01-.632-.308c-2.001-2.57-3.996-4.742-6.096-6.636a.8.8 0 111.072-1.188c2.172 1.957 4.229 4.196 6.288 6.841a.801.801 0 01-.632 1.291zm-12.62-4.029a.798.798 0 01-.498-.173 51.395 51.395 0 00-6.607-4.462.8.8 0 01.788-1.392 53.101 53.101 0 016.816 4.6c.346.275.404.78.129 1.126a.809.809 0 01-.628.301zm62.661 52.586a.8.8 0 01-.742-.502 28.037 28.037 0 00-1.77-3.581.8.8 0 01.294-1.094.808.808 0 011.094.294 29.775 29.775 0 011.865 3.785.799.799 0 01-.741 1.098zm8.062 3.4a.801.801 0 01-.782-.632c-.323-1.486-.78-3.026-1.399-4.708a.799.799 0 01.473-1.028.801.801 0 011.028.473c.646 1.755 1.123 3.366 1.461 4.925a.799.799 0 01-.781.97zm-1.951 11.54c-.025 0-.052-.002-.081-.004a.8.8 0 01-.715-.877c.167-1.647.219-3.137.158-4.554a.803.803 0 01.767-.834c.488.042.815.327.834.767.06 1.494.006 3.06-.167 4.783a.8.8 0 01-.796.719zm-6.165-5.823a.799.799 0 01-.796-.727 30.25 30.25 0 00-.569-3.675.8.8 0 111.564-.342c.277 1.263.479 2.564.598 3.87a.797.797 0 01-.797.874zm-7.618 48.182a.798.798 0 01-.696-1.196 65.993 65.993 0 002.218-4.216.808.808 0 011.067-.379c.4.192.569.669.379 1.067a68.738 68.738 0 01-2.272 4.321.805.805 0 01-.696.403zm-3.347-8.118a.802.802 0 01-.727-1.134 59.546 59.546 0 001.667-3.964.81.81 0 011.032-.469.804.804 0 01.469 1.032 61.134 61.134 0 01-1.713 4.068.804.804 0 01-.728.467zm6.092-8.946a.803.803 0 01-.772-1.015 63.896 63.896 0 001.038-4.364c.088-.434.496-.732.944-.623a.8.8 0 01.623.944 65.033 65.033 0 01-1.063 4.473.798.798 0 01-.77.585zm3.931 8.095a.8.8 0 01-.748-1.084 76.776 76.776 0 001.588-4.66.793.793 0 01.998-.531.798.798 0 01.531.998 77.784 77.784 0 01-1.622 4.76.799.799 0 01-.747.517zm-73.35-59.303a.798.798 0 01-.669-1.238 55.654 55.654 0 002.013-3.345.803.803 0 011.088-.308.798.798 0 01.308 1.088 55.932 55.932 0 01-2.072 3.441.794.794 0 01-.668.362zm2.426 8.116a.807.807 0 01-.496-.171.804.804 0 01-.133-1.126 59.966 59.966 0 002.568-3.535.804.804 0 011.113-.213.803.803 0 01.213 1.113 64.57 64.57 0 01-2.635 3.627.804.804 0 01-.63.305zm-8.881 5.715a.799.799 0 01-.544-1.388 57.572 57.572 0 002.983-2.939.802.802 0 011.167 1.097 60.652 60.652 0 01-3.062 3.018.806.806 0 01-.544.212zm-.59-8.285a.8.8 0 01-.597-1.334 58.834 58.834 0 002.414-2.88.8.8 0 011.258.988 59.376 59.376 0 01-2.48 2.96.796.796 0 01-.595.266zm-141.034 37.387a.8.8 0 01-.477-1.442c1.436-1.067 2.805-1.905 4.183-2.564a.807.807 0 011.067.379.801.801 0 01-.379 1.067c-1.282.613-2.564 1.399-3.916 2.401a.8.8 0 01-.478.159zm2.403-9.095a.802.802 0 01-.317-1.537c2.047-.882 3.948-1.515 5.809-1.936a.802.802 0 01.355 1.563c-1.765.398-3.575 1.003-5.53 1.845a.81.81 0 01-.317.065zm19.19.473a.75.75 0 01-.156-.015c-1.901-.379-3.645-.571-5.332-.582a.8.8 0 01.006-1.601h.006c1.788.013 3.631.213 5.632.611a.802.802 0 01-.156 1.587zm-11.474 6.311a.801.801 0 01-.182-1.58 26.864 26.864 0 014.465-.646c.504-.06.821.311.846.75a.797.797 0 01-.75.846c-1.407.085-2.82.29-4.198.609a.769.769 0 01-.181.021zm54.879 33.171a.802.802 0 01-.711-1.17c.782-1.501 1.365-2.91 1.784-4.312a.801.801 0 011.534.458c-.45 1.501-1.069 3.001-1.897 4.592a.798.798 0 01-.71.432zm-4.331-7.249a.797.797 0 01-.775-.996c.321-1.273.509-2.389.575-3.414.029-.44.354-.807.85-.746.44.027.775.409.746.85-.071 1.121-.275 2.332-.621 3.702a.8.8 0 01-.775.604zm3.012-8.889a.8.8 0 01-.79-.675c-.192-1.209-.519-2.447-1-3.783a.799.799 0 111.504-.542c.517 1.432.869 2.766 1.075 4.075a.8.8 0 01-.789.925zm6.473 6.023c-.019 0-.04 0-.06-.002a.8.8 0 01-.738-.859 30.358 30.358 0 00-.048-5.054.798.798 0 01.721-.871.796.796 0 01.871.721c.167 1.767.183 3.558.052 5.325a.801.801 0 01-.798.74zm36.069 52.993a.802.802 0 01-.713-1.166c.948-1.853 1.918-3.462 2.968-4.917a.804.804 0 011.117-.179c.358.258.44.759.179 1.117-1 1.388-1.928 2.928-2.839 4.708a.799.799 0 01-.712.437zm-1.616-9.961a.802.802 0 01-.634-1.29c1.499-1.943 2.955-3.587 4.456-5.027a.8.8 0 011.109 1.155c-1.442 1.386-2.847 2.972-4.298 4.852a.795.795 0 01-.633.31zm12.833-8.318a.802.802 0 01-.44-1.47c1.661-1.092 3.481-2.088 5.567-3.045a.797.797 0 011.061.394c.183.4.008.875-.394 1.061-2.009.923-3.762 1.88-5.354 2.928a.79.79 0 01-.44.132zm-2.232 9.758a.8.8 0 01-.556-1.376 40.79 40.79 0 014.137-3.499.795.795 0 011.119.169.798.798 0 01-.169 1.119 38.817 38.817 0 00-3.975 3.362.796.796 0 01-.556.225zM135.46 274.996c-.027 0-.054-.002-.081-.004a.8.8 0 01-.715-.877c.106-1.036.646-2.184 1.561-3.316a.8.8 0 111.247 1.005c-.721.892-1.14 1.747-1.215 2.474a.8.8 0 01-.797.718zm-2.901-8.158a.803.803 0 01-.579-1.353c1.284-1.346 2.66-2.555 3.979-3.495a.8.8 0 11.929 1.305c-1.238.88-2.534 2.02-3.75 3.295a.795.795 0 01-.579.248zm10.538-5.067a.8.8 0 01-.479-1.442l3.677-2.747a.8.8 0 11.958 1.284l-3.677 2.747a.804.804 0 01-.479.158zm-1.069 8.604a.8.8 0 01-.479-1.442l3.51-2.62a.8.8 0 11.958 1.284l-3.51 2.62a.806.806 0 01-.479.158zm-63.229-10.847a.798.798 0 01-.721-.454c-.384-.8-.748-1.609-1.103-2.424a.8.8 0 111.468-.638c.346.798.702 1.586 1.078 2.37a.799.799 0 01-.722 1.146zm7.377-.271a.802.802 0 01-.704-.419 64.475 64.475 0 01-1.1-2.141.8.8 0 011.438-.704c.342.698.698 1.396 1.071 2.082a.802.802 0 01-.705 1.182zm.664 6.276a.798.798 0 01-.667-.358 60.638 60.638 0 01-1.349-2.118.804.804 0 01.271-1.1.805.805 0 011.1.271c.421.698.861 1.384 1.311 2.063a.8.8 0 01-.666 1.242zm-7.178.321a.8.8 0 01-.69-.396 73.191 73.191 0 01-1.349-2.393.799.799 0 01.325-1.084.804.804 0 011.084.325c.425.788.867 1.569 1.319 2.343a.797.797 0 01-.286 1.094.776.776 0 01-.403.111zm44.022-93.942a.536.536 0 01-.529-.608c.092-.644.436-1.417 1.084-2.434a.54.54 0 01.738-.163.535.535 0 01.163.738c-.557.871-.859 1.528-.925 2.009a.537.537 0 01-.531.458zm-2.359-5.248a.531.531 0 01-.448-.823 85.22 85.22 0 011.795-2.657.53.53 0 01.742-.129c.242.169.3.5.129.742a87.926 87.926 0 00-1.77 2.624.533.533 0 01-.448.243zm5.761-5.025a.532.532 0 01-.419-.863 82.38 82.38 0 011.984-2.43.538.538 0 01.752-.06.532.532 0 01.06.752 80.222 80.222 0 00-1.959 2.397.53.53 0 01-.418.204zm.881 5.802a.516.516 0 01-.306-.098.53.53 0 01-.129-.742 76.51 76.51 0 011.759-2.401.53.53 0 01.746-.1.53.53 0 01.1.746 79.247 79.247 0 00-1.734 2.368.532.532 0 01-.436.227zm29.847 41.315a.534.534 0 01-.488-.75c.561-1.265 1.711-2.489 3.622-3.852a.534.534 0 11.621.871c-1.751 1.244-2.789 2.33-3.268 3.414a.533.533 0 01-.487.317zm2.091-8.119a.526.526 0 01-.444-.24.531.531 0 01.15-.738 43.557 43.557 0 015.546-3.106.543.543 0 01.711.256.535.535 0 01-.256.711 42.382 42.382 0 00-5.413 3.026.515.515 0 01-.294.091zm13.946-4.187a.534.534 0 01-.517-.404.53.53 0 01.388-.646 40.868 40.868 0 016.013-1.025c.277-.046.554.188.581.481a.537.537 0 01-.481.582 40.43 40.43 0 00-5.855.996.49.49 0 01-.129.016zm-5.949 6.505a.534.534 0 01-.226-1.017 38.366 38.366 0 015.131-1.963.527.527 0 01.665.356.535.535 0 01-.356.665 37.37 37.37 0 00-4.99 1.909.54.54 0 01-.224.05zm76.211-46.212c-1.78 0-3.464-.296-5.015-.884a.533.533 0 11.38-.996c1.655.625 3.47.896 5.438.792a.54.54 0 01.561.506.536.536 0 01-.506.561 17.7 17.7 0 01-.858.021zm1.587-4.571a.533.533 0 01-.07-1.063 14.175 14.175 0 003.943-1.144c.261-.127.584-.004.707.265s.004.584-.265.707a15.348 15.348 0 01-4.244 1.232l-.071.003zm10.479-3.131a.531.531 0 01-.329-.952c1.349-1.063 2.676-2.247 3.816-3.272a.53.53 0 01.752.04.531.531 0 01-.04.752c-1.151 1.038-2.495 2.236-3.87 3.318a.524.524 0 01-.329.114zm-3.949 7.364a.536.536 0 01-.219-1.022c1.569-.702 3.154-1.63 4.85-2.837a.531.531 0 01.744.127.532.532 0 01-.127.744c-1.751 1.246-3.397 2.207-5.029 2.941a.533.533 0 01-.219.047zm68.628 6.849a.536.536 0 01-.521-.415c-.256-1.132.133-2.576 1.096-4.068a.533.533 0 11.896.58c-.794 1.23-1.14 2.416-.95 3.251a.538.538 0 01-.521.652zm-1.88-7.276a.533.533 0 01-.419-.865c1.338-1.686 2.697-2.899 4.01-4.071a.528.528 0 01.752.044.531.531 0 01-.044.752c-1.338 1.194-2.601 2.324-3.881 3.937a.53.53 0 01-.418.203zm10.826-6.837a.534.534 0 01-.275-.99 42.324 42.324 0 014.675-2.437.533.533 0 11.433.975 41.651 41.651 0 00-4.558 2.374.52.52 0 01-.275.078zm-2.98 7.316a.534.534 0 01-.348-.938 37.755 37.755 0 013.768-2.88.533.533 0 11.592.888 37.047 37.047 0 00-3.664 2.801.53.53 0 01-.348.129zM58.788 309.165a.535.535 0 01-.534-.531.535.535 0 01.531-.536c1.284-.006 2.599-.275 3.912-.802a.542.542 0 01.694.298.535.535 0 01-.298.694c-1.436.575-2.885.871-4.304.878h-.001zm3.043-5.25a.535.535 0 01-.235-1.013 10.315 10.315 0 002.255-1.522.533.533 0 11.704.801 11.407 11.407 0 01-2.489 1.68.525.525 0 01-.235.054zm6.653-3.793a.53.53 0 01-.313-.102.53.53 0 01-.119-.744c.709-.984 1.39-2.04 1.972-2.955a.538.538 0 01.736-.163c.25.158.323.488.165.736a62.22 62.22 0 01-2.009 3.008.534.534 0 01-.432.22zm-.36 6.657a.542.542 0 01-.402-.181.536.536 0 01.05-.754c.948-.83 1.863-1.805 2.799-2.985a.539.539 0 01.75-.088.536.536 0 01.088.75c-.978 1.23-1.936 2.253-2.933 3.126a.537.537 0 01-.352.132zM335.738 80.331a.532.532 0 01-.281-.079 44.757 44.757 0 00-2.272-1.315.538.538 0 01-.213-.725.54.54 0 01.725-.213c.784.429 1.561.873 2.322 1.344.25.156.327.486.173.736a.538.538 0 01-.454.252zm5.334-1.815a.535.535 0 01-.311-.1 52.172 52.172 0 00-2.382-1.603.535.535 0 01-.163-.738.54.54 0 01.738-.163 51.52 51.52 0 012.428 1.636.534.534 0 01-.31.968zm4.089 5.623a.538.538 0 01-.363-.142 48.436 48.436 0 00-2.08-1.832.533.533 0 01.679-.821c.73.602 1.434 1.23 2.126 1.87a.534.534 0 01-.362.925zm-5.49.765a.527.527 0 01-.333-.117 50.248 50.248 0 00-2.03-1.536.534.534 0 01.621-.867 53.252 53.252 0 012.076 1.569.534.534 0 01-.334.951zM151.309 412.616a.537.537 0 01-.381-.16 17.902 17.902 0 01-1.757-2.053.531.531 0 01.119-.744.531.531 0 01.744.119c.461.634 1 1.265 1.657 1.932a.535.535 0 01-.382.906zm-5.755.015a.526.526 0 01-.442-.236 23.02 23.02 0 01-1.686-2.887.533.533 0 11.959-.467c.431.89.957 1.79 1.611 2.757a.531.531 0 01-.144.74.506.506 0 01-.298.093zm-1.5-7.441a.534.534 0 01-.515-.392 20.667 20.667 0 01-.579-3.047.531.531 0 01.467-.592.544.544 0 01.592.467c.125 1.053.304 1.997.55 2.889a.536.536 0 01-.515.675zm5.185 1.999a.53.53 0 01-.479-.3 19.081 19.081 0 01-.94-2.307.533.533 0 111.013-.337c.244.736.542 1.467.886 2.178a.532.532 0 01-.48.766z"
        className="hovered-path"
        data-original="#272526"
      ></path>
      <path
        fill="#fff"
        d="M83.971 216.096c3.203-3.873 6.393-7.958 10.391-11.047 3.864-2.986 8.628-4.824 13.369-5.971 5.77-1.395 11.845-.058 17.637-1.514 5.155-1.296 9.514-4.991 12.473-9.326.364-.534-.538-1.166-.937-.651-3.56 4.592-8.789 7.387-14.543 8.172-5.836.796-11.76-.047-17.537 1.39-4.491 1.117-8.673 4.33-12.17 7.293-3.807 3.227-7.061 6.709-9.618 11.003-.334.557.519 1.154.935.651z"
        data-original="#ffffff"
      ></path>
      <path
        fill="#f56176"
        d="M439.226 264.679a13.437 13.437 0 009.545 3.952c-7.458 0-13.497 6.039-13.497 13.497 0-3.729-1.503-7.096-3.952-9.545s-5.816-3.952-9.545-3.952c3.729 0 7.096-1.503 9.545-3.952s3.952-5.816 3.952-9.545c0 3.729 1.503 7.096 3.952 9.545z"
        data-original="#f56176"
      ></path>
      <path
        fill="#272526"
        d="M435.27 283.193c-.59 0-1.067-.477-1.067-1.067 0-6.853-5.575-12.429-12.431-12.429a1.066 1.066 0 110-2.134c6.855 0 12.431-5.575 12.431-12.429a1.066 1.066 0 112.134 0c0 6.853 5.575 12.429 12.429 12.429a1.066 1.066 0 110 2.134c-6.096 0-11.328-3.764-13.496-9.09a14.643 14.643 0 01-8.024 8.022c5.327 2.168 9.092 7.399 9.092 13.496 0 .591-.478 1.068-1.068 1.068z"
        className="hovered-path"
        data-original="#272526"
      ></path>
      <path
        fill="#12a883"
        d="M154.601 63.597a13.437 13.437 0 009.545 3.952c-7.458 0-13.497 6.039-13.497 13.497 0-3.729-1.503-7.096-3.952-9.545s-5.816-3.952-9.545-3.952c3.729 0 7.096-1.503 9.545-3.952s3.952-5.816 3.952-9.545a13.442 13.442 0 003.952 9.545z"
        data-original="#12a883"
      ></path>
      <path
        fill="#272526"
        d="M150.644 82.113c-.59 0-1.067-.477-1.067-1.067 0-6.855-5.575-12.431-12.429-12.431a1.066 1.066 0 110-2.134c6.853 0 12.429-5.575 12.429-12.429a1.066 1.066 0 112.134 0c0 6.853 5.575 12.429 12.429 12.429a1.066 1.066 0 110 2.134c-6.096 0-11.328-3.764-13.496-9.09a14.645 14.645 0 01-8.022 8.022c5.325 2.168 9.09 7.401 9.09 13.498a1.068 1.068 0 01-1.068 1.068z"
        className="hovered-path"
        data-original="#272526"
      ></path>
      <path
        fill="#12a883"
        d="M53.964 377.685a13.437 13.437 0 009.545 3.952c-7.458 0-13.497 6.039-13.497 13.497 0-3.729-1.503-7.096-3.952-9.545s-5.816-3.952-9.545-3.952c3.729 0 7.096-1.503 9.545-3.952s3.952-5.816 3.952-9.545a13.446 13.446 0 003.952 9.545z"
        data-original="#12a883"
      ></path>
      <path
        fill="#272526"
        d="M50.007 396.2c-.59 0-1.067-.477-1.067-1.067 0-6.853-5.575-12.429-12.429-12.429a1.066 1.066 0 110-2.134c6.853 0 12.429-5.575 12.429-12.429a1.066 1.066 0 112.134 0c0 6.853 5.575 12.429 12.429 12.429a1.066 1.066 0 110 2.134c-6.096 0-11.328-3.764-13.496-9.09a14.645 14.645 0 01-8.022 8.022c5.325 2.168 9.09 7.399 9.09 13.496a1.068 1.068 0 01-1.068 1.068z"
        className="hovered-path"
        data-original="#272526"
      ></path>
      <path
        fill="#f56176"
        d="M213.244 447.568a13.437 13.437 0 009.545 3.952c-7.458 0-13.497 6.039-13.497 13.497 0-3.729-1.503-7.096-3.952-9.545s-5.816-3.952-9.545-3.952c3.729 0 7.096-1.503 9.545-3.952s3.952-5.816 3.952-9.545c0 3.729 1.503 7.096 3.952 9.545z"
        data-original="#f56176"
      ></path>
      <path
        fill="#272526"
        d="M209.287 466.084c-.59 0-1.067-.477-1.067-1.067 0-6.853-5.575-12.429-12.429-12.429a1.066 1.066 0 110-2.134c6.853 0 12.429-5.575 12.429-12.428a1.066 1.066 0 112.134 0c0 6.853 5.575 12.428 12.429 12.428a1.066 1.066 0 110 2.134c-6.096 0-11.328-3.764-13.496-9.09a14.645 14.645 0 01-8.022 8.022c5.325 2.168 9.09 7.399 9.09 13.496a1.068 1.068 0 01-1.068 1.068z"
        className="hovered-path"
        data-original="#272526"
      ></path>
    </svg>